<svg id="Layer_2" data-name="Layer 2" xmlns="http://www.w3.org/2000/svg" width="1050" height="150" viewBox="0 0 1050 150"><defs><style>.cls-1{fill:#fff;}.cls-2{fill:#0d00f2;}</style></defs><title>star</title><polygon class="cls-1" points="68.81 89 52.96 96.54 60.49 80.69 6.75 75 60.49 69.31 52.96 53.46 68.81 60.99 74.5 7.25 80.19 60.99 96.04 53.46 88.5 69.31 143.17 75 88.5 80.69 96.04 96.54 80.19 89 74.5 142.75 68.81 89"/><path class="cls-2" d="M74.5,12l5.12,48.35.15,1.4L81,61.14,95,54.52,88.36,68.46l-.61,1.27,1.41.15L138.34,75,89.16,80.12l-1.41.15.61,1.27L95,95.48,81,88.86l-1.27-.61-.15,1.4L74.5,138,69.38,89.65l-.15-1.4L68,88.86,54,95.48l6.62-13.94.61-1.27-1.4-.15L11.5,75l48.35-5.12,1.4-.15-.61-1.27L54,54.52,68,61.14l1.27.61.15-1.4L74.5,12m0-9.5L68.39,60.24,51.91,52.41l7.83,16.48L2,75l57.74,6.11L51.91,97.59l16.48-7.83L74.5,147.5l6.11-57.74,16.48,7.83L89.26,81.11,148,75,89.26,68.89l7.83-16.48L80.61,60.24,74.5,2.5Z"/><polygon class="cls-1" points="220.46 85.31 208.74 90.89 214.31 79.16 175 75 214.31 70.84 208.74 59.11 220.46 64.69 224.63 25.37 228.79 64.69 240.51 59.11 234.94 70.84 274.92 75 234.94 79.16 240.51 90.89 228.79 85.31 224.63 124.63 220.46 85.31"/><path class="cls-2" d="M224.63,30.12,228.22,64l.14,1.4,1.28-.61,9.82-4.66L234.79,70l-.61,1.27,1.41.15L270.09,75l-34.5,3.59-1.41.15.61,1.27,4.67,9.82-9.82-4.66-1.28-.61-.14,1.4-3.59,33.92L221,86l-.14-1.4-1.28.61-9.82,4.66L214.46,80l.6-1.27-1.4-.15L179.75,75l33.91-3.59,1.4-.15-.6-1.27-4.67-9.82,9.82,4.66,1.28.61L221,64l3.6-33.92m0-9.49L220,63.93l-12.36-5.87,5.88,12.35L170.25,75l43.31,4.59-5.88,12.35L220,86.07l4.59,43.31,4.58-43.31,12.36,5.87-5.88-12.35L279.75,75l-44.06-4.59,5.88-12.35-12.36,5.87-4.58-43.3Z"/><polygon class="cls-1" points="371.67 82.56 363.06 86.65 367.16 78.05 347.3 75 367.16 71.95 363.06 63.35 371.67 67.44 374.72 48.19 377.77 67.44 386.37 63.35 382.28 71.96 402.62 75 382.28 78.04 386.37 86.65 377.77 82.56 374.72 101.81 371.67 82.56"/><path class="cls-2" d="M374.72,51.39l2.45,15.46.21,1.32,1.21-.57,6.73-3.2-3.2,6.73-.58,1.22,1.33.2L399.24,75l-16.37,2.45-1.33.2.58,1.22,3.2,6.73-6.73-3.2-1.21-.57-.21,1.32-2.45,15.46-2.45-15.46-.21-1.32-1.21.57-6.73,3.2,3.2-6.73.58-1.22-1.33-.2-16-2.45,16-2.45,1.33-.2-.58-1.22-3.2-6.73,6.73,3.2,1.21.57.21-1.32,2.45-15.46m0-6.39-3.44,21.7L362,62.29l4.41,9.27L344,75l22.42,3.44L362,87.71l9.27-4.41,3.44,21.7,3.44-21.7,9.27,4.41L383,78.44,406,75l-23-3.44,4.41-9.27-9.27,4.41L374.72,45Z"/><polygon class="cls-1" points="522.6 80.75 519.44 80.53 519.01 77.17 510.11 75 519.01 72.83 519.44 69.47 522.6 69.25 524.96 60.96 526.97 69.24 529.62 69.47 530.62 72.84 539.81 75 530.62 77.16 529.62 80.53 526.96 80.76 524.96 89.85 522.6 80.75"/><path class="cls-2" d="M524.92,62.92,526.4,69l.17.7.71.06,2,.17.82,2.77.16.55.57.13L537.63,75l-6.84,1.61-.57.13-.16.55-.82,2.77-2,.17-.73.06-.16.72-1.47,6.69L523.18,81l-.18-.7-.72,0-2.39-.17-.34-2.61-.08-.68-.67-.16L512.22,75l6.58-1.61.67-.16.08-.68.34-2.61,2.39-.17.7,0,.19-.67,1.75-6.13M525,59l-2.79,9.77L519,69l-.44,3.42L508,75l10.56,2.58L519,81l3.21.23L525,92l2.37-10.77L530,81l1-3.42L542,75l-11-2.58L530,69l-2.63-.23L525,59Z"/><polygon class="cls-1" points="672.62 78.5 673 78.5 673.1 77.51 660.47 74.98 672.42 72.42 674.88 61.73 676.5 73.07 677.5 73 677.5 72.63 687.78 75 676.55 77.59 674.9 89.15 672.62 78.5"/><path class="cls-2" d="M674.77,64.45,676,73.14l1.14-.08,8.4,1.94-8.77,2-.67.15-.1.68-1.21,8.45-1.73-8.07L673.2,77l-10.27-2,9.28-2,.62-.14.14-.62,1.8-7.77M675,59l-3,13-14,3,15,3h-1l3,14,2-14,13-3-13-3v1l-2-14Z"/><polygon class="cls-1" points="823.37 76.63 820.12 75 823.34 73.39 825 70.9 826.66 73.39 829.88 75 826.63 76.63 825 79.88 823.37 76.63"/><path class="cls-2" d="M825,71.8l1.17,1.75.15.23.23.11L828.76,75l-2.21,1.11-.3.14-.14.3L825,78.76l-1.11-2.21-.14-.3-.3-.14L821.24,75l2.21-1.11.23-.11.15-.23L825,71.8m0-1.8-2,3-4,2,4,2,2,4,2-4,4-2-4-2-2-3Z"/></svg>
